<?xml version="1.0" standalone="no"?>
<!DOCTYPE svg PUBLIC "-//W3C//DTD SVG 20010904//EN" "http://www.w3.org/TR/2001/REC-SVG-20010904/DTD/svg10.dtd">
<!-- Created using Krita: https://krita.org -->
<svg xmlns="http://www.w3.org/2000/svg" 
    xmlns:xlink="http://www.w3.org/1999/xlink"
    xmlns:krita="http://krita.org/namespaces/svg/krita"
    xmlns:sodipodi="http://sodipodi.sourceforge.net/DTD/sodipodi-0.dtd"
    width="260.88pt"
    height="91.56pt"
    viewBox="0 0 260.88 91.56">
<defs/>
<path id="shape0" transform="matrix(0.873094238282589 0.0980884358252024 -0.150758548251052 0.568063629921152 2.30725982920916 1.36005996045182)" fill="#459cff" stroke="#1170dc" stroke-width="4.8" stroke-linecap="square" stroke-linejoin="bevel" d="M2.41278 14.6608C1.39144 8.56294 0.434315 2.53763 0.0309521 0.575865C-0.372411 -1.3859 3.26439 2.12765 5.24526 4.19063C8.6565 7.92332 9.41615 8.78758 12.0935 11.6856" sodipodi:nodetypes="czcc"/><path id="shape01" transform="matrix(-0.873094224364546 0.0980884342615693 0.150758545847802 0.568063620865619 41.3727413601812 1.36981237534695)" fill="#459cff" stroke="#1170dc" stroke-width="4.8" stroke-linecap="square" stroke-linejoin="bevel" d="M2.41278 14.6608C1.39144 8.56294 0.434315 2.53763 0.0309521 0.575864C-0.372411 -1.3859 3.26439 2.12765 5.24526 4.19063C8.6565 7.92332 9.41615 8.78758 12.0935 11.6856" sodipodi:nodetypes="czcc"/><text id="shape02" krita:useRichText="false" krita:textVersion="2" transform="matrix(0.999999986753474 0 0 0.999999986753474 4.3799768215437 84.3599769768274)" fill="#1170dc" stroke-opacity="0" stroke="#000000" stroke-width="0" stroke-linecap="square" stroke-linejoin="bevel" font-family="Bebas Neue" font-size="96" font-size-adjust="0.190476" font-stretch="normal" letter-spacing="0" word-spacing="0"><tspan x="0">T</tspan></text><text id="shape03" krita:useRichText="false" krita:textVersion="2" transform="matrix(0.999999956812898 0 0 0.999999956812898 41.1424229908588 83.9599963740109)" fill="#1170dc" stroke-opacity="0" stroke="#000000" stroke-width="0" stroke-linecap="square" stroke-linejoin="bevel" font-family="Bebas Neue" font-size="72" font-size-adjust="0.190476" font-stretch="normal" letter-spacing="5" word-spacing="0"><tspan x="0">atsu</tspan><tspan fill="#459cff">dev</tspan></text><path id="shape04" transform="matrix(0.999999998447295 0 0 0.999999998447295 21.4876842856718 70.4747338495715)" fill="none" stroke="#1170dc" stroke-width="10.32" stroke-linecap="square" stroke-linejoin="bevel" d="M0.411025 1.87429C0.42535 2.41833 0.411213 3.17494 0.368614 4.14411C0.0407732 6.14696 -0.0246531 8.62402 0.172335 11.5753C-0.772613 14.4978 2.16844 15.8949 8.99551 15.7667C18.0085 16.3351 23.2945 13.5809 24.8536 7.50407C26.3197 1.78929 30.5105 -0.661387 37.4258 0.152028C37.5765 0.454463 38.5106 0.472364 40.2282 0.205732" sodipodi:nodetypes="cccczcc"/>
</svg>
